<mxfile host="65bd71144e">
    <diagram id="AHD64nYQbbOEUx1uieei" name="Page-1">
        <mxGraphModel dx="675" dy="663" grid="1" gridSize="10" guides="1" tooltips="1" connect="1" arrows="1" fold="1" page="1" pageScale="1" pageWidth="850" pageHeight="1100" background="#182E3E" math="0" shadow="1">
            <root>
                <mxCell id="0"/>
                <mxCell id="1" parent="0"/>
                <mxCell id="Kfou-vyiGkeOoHF8PwEq-33" value="users" style="swimlane;childLayout=stackLayout;horizontal=1;startSize=30;horizontalStack=0;rounded=0;fontSize=14;fontStyle=1;strokeWidth=2;resizeParent=0;resizeLast=1;shadow=0;dashed=0;align=center;fontColor=#000000;fillColor=#FFFFFF;" parent="1" vertex="1">
                    <mxGeometry x="40" y="190" width="240" height="240" as="geometry"/>
                </mxCell>
                <mxCell id="Kfou-vyiGkeOoHF8PwEq-34" value="id                                            integer               &#10;email                                      string&#10;password                               string&#10;confirm_password                 string&#10;role                                        string&#10;confirmed_at                         datetime       &#10;approved                               boolean&#10;balance                                  integer&#10;jti                                            string&#10;confirmation_token                index&#10;created_at                             datetime&#10;updated_at                            datetime" style="align=left;strokeColor=none;fillColor=#E6E6E6;spacingLeft=4;fontSize=13;verticalAlign=top;resizable=0;rotatable=0;part=1;rounded=1;fontColor=#000000;glass=0;shadow=0;" parent="Kfou-vyiGkeOoHF8PwEq-33" vertex="1">
                    <mxGeometry y="30" width="240" height="210" as="geometry"/>
                </mxCell>
                <mxCell id="9IQH7I7QgMyA9SMCP7rK-22" value="stocks" style="swimlane;childLayout=stackLayout;horizontal=1;startSize=30;horizontalStack=0;rounded=0;fontSize=14;fontStyle=1;strokeWidth=2;resizeParent=0;resizeLast=1;shadow=0;dashed=0;align=center;fontColor=#000000;fillColor=#FFFFFF;" parent="1" vertex="1">
                    <mxGeometry x="400" y="370" width="230" height="140" as="geometry"/>
                </mxCell>
                <mxCell id="9IQH7I7QgMyA9SMCP7rK-23" value="id                                     integer&#10;company_name              string  &#10;symbol                            string&#10;price                                decimal&#10;created_at                       datetime&#10;updated_at                      datetime" style="align=left;strokeColor=none;fillColor=#E6E6E6;spacingLeft=4;fontSize=13;verticalAlign=top;resizable=0;rotatable=0;part=1;rounded=1;fontColor=#000000;glass=0;shadow=0;" parent="9IQH7I7QgMyA9SMCP7rK-22" vertex="1">
                    <mxGeometry y="30" width="230" height="110" as="geometry"/>
                </mxCell>
                <mxCell id="9IQH7I7QgMyA9SMCP7rK-24" value="transactions" style="swimlane;childLayout=stackLayout;horizontal=1;startSize=30;horizontalStack=0;rounded=0;fontSize=14;fontStyle=1;strokeWidth=2;resizeParent=0;resizeLast=1;shadow=0;dashed=0;align=center;fontColor=#000000;fillColor=#FFFFFF;" parent="1" vertex="1">
                    <mxGeometry x="400" y="100" width="230" height="190" as="geometry"/>
                </mxCell>
                <mxCell id="9IQH7I7QgMyA9SMCP7rK-25" value="id                                       integer&#10;user_id                              integer&#10;stock_symbol                    string&#10;stock_price                       decimal&#10;stock_quantity                   integer&#10;transaction_type                string&#10;total                                   decimal&#10;created_at                         datetime&#10;updated_at                        datetime" style="align=left;strokeColor=none;fillColor=#E6E6E6;spacingLeft=4;fontSize=13;verticalAlign=top;resizable=0;rotatable=0;part=1;rounded=1;fontColor=#000000;glass=0;shadow=0;" parent="9IQH7I7QgMyA9SMCP7rK-24" vertex="1">
                    <mxGeometry y="30" width="230" height="160" as="geometry"/>
                </mxCell>
                <mxCell id="9IQH7I7QgMyA9SMCP7rK-29" value="" style="edgeStyle=entityRelationEdgeStyle;fontSize=12;html=1;endArrow=ERmandOne;startArrow=ERmandOne;rounded=0;strokeColor=#FFFFFF;" parent="1" source="Kfou-vyiGkeOoHF8PwEq-33" target="9IQH7I7QgMyA9SMCP7rK-25" edge="1">
                    <mxGeometry width="100" height="100" relative="1" as="geometry">
                        <mxPoint x="250" y="260" as="sourcePoint"/>
                        <mxPoint x="350" y="160" as="targetPoint"/>
                    </mxGeometry>
                </mxCell>
                <mxCell id="9IQH7I7QgMyA9SMCP7rK-30" value="" style="edgeStyle=entityRelationEdgeStyle;fontSize=12;html=1;endArrow=ERmany;startArrow=ERmany;rounded=0;strokeColor=#FFFFFF;exitX=1;exitY=0.636;exitDx=0;exitDy=0;exitPerimeter=0;" parent="1" source="Kfou-vyiGkeOoHF8PwEq-34" target="9IQH7I7QgMyA9SMCP7rK-22" edge="1">
                    <mxGeometry width="100" height="100" relative="1" as="geometry">
                        <mxPoint x="450" y="190" as="sourcePoint"/>
                        <mxPoint x="550" y="90" as="targetPoint"/>
                    </mxGeometry>
                </mxCell>
            </root>
        </mxGraphModel>
    </diagram>
</mxfile>